<svg viewBox="1.237 1.252 97.518 97.504" xmlns="http://www.w3.org/2000/svg">
  <path
    d="M98.217 56.19H77.641a.517.517 0 0 0-.503.4C74.75 66.697 66.684 74.77 56.576 77.144a.517.517 0 0 0-.4.503v20.576a.526.526 0 0 0 .524.524c.02 0 .041 0 .069-.006 21.797-2.912 39.054-20.17 41.966-41.973a.54.54 0 0 0-.124-.414.553.553 0 0 0-.394-.166z" />
  <path
    d="M50.228 22.538c12.882 0 23.95 8.784 26.903 21.362a.51.51 0 0 0 .503.394H98.21c.007.007.021 0 .028 0 .29 0 .517-.235.517-.518a.61.61 0 0 0-.048-.228C95.402 19.426 74.592 1.252 50.227 1.252c-27.013 0-48.99 21.977-48.99 48.997 0 24.42 18.251 45.264 42.45 48.5.027 0 .048.007.068.007a.502.502 0 0 0 .345-.13.522.522 0 0 0 .173-.394V77.655a.517.517 0 0 0-.4-.504c-12.579-2.96-21.363-14.02-21.363-26.903.007-15.283 12.441-27.71 27.718-27.71z" />
</svg>