<svg viewBox="0 0 160 80" xmlns="http://www.w3.org/2000/svg">
  <path
    d="M 3.7 18.6 v -6.1 H 0 v 44 h 4.1 V 37.3 c 2.2 3.7 6.2 7.1 11.9 7.1 c 2.1 0 4 -0.4 5.7 -1.3 c 4.9 -2.4 8.4 -7.7 8.4 -14.9 c 0 -4.7 -1.9 -8.6 -4.2 -11.3 C 23.6 14.3 20.1 12 15.3 12 c -5.3 0 -9.4 3.2 -11.6 6.6 z m 11.2 22.2 c -1.2 0 -2.3 -0.2 -3.4 -0.6 c -3.4 -1.3 -6 -4 -7.4 -7.3 v -9.6 c 0.2 -1 0.6 -2 1.3 -3 c 1.8 -2.4 5 -4.8 9 -4.8 c 1.6 0 3.2 0.3 4.6 1 c 3.9 1.9 7 6 7 11.6 c 0 1.6 -0.3 3.1 -0.8 4.7 c -1.4 4.2 -4.9 8 -10.4 8 z M 49.6 16.1 v -3.7 c -0.2 0 -0.5 -0.1 -0.8 -0.1 c -5.3 0 -9.1 3.7 -11 7.7 v -7.5 H 34 V 43.8 h 4.1 V 24.4 c 1.6 -4.7 5.7 -8.1 11.5 -8.2 z" />

  <g transform="translate(53,8.9)">
    <svg viewBox="1.237 1.252 97.518 97.504" xmlns="http://www.w3.org/2000/svg" width="38.8" height="38.8">
      <path
        d="M 98.2 56.2 H 77.6 a 0.5 0.5 0 0 0 -0.5 0.4 C 74.8 66.7 66.7 74.8 56.6 77.1 a 0.5 0.5 0 0 0 -0.4 0.5 v 20.6 a 0.5 0.5 0 0 0 0.5 0.5 c 0 0 0 0 0.1 0 c 21.8 -2.9 39.1 -20.2 42 -42 a 0.5 0.5 0 0 0 -0.1 -0.4 a 0.6 0.6 0 0 0 -0.4 -0.2 z" />
      <path
        d="M 50.2 22.5 c 12.9 0 23.9 8.8 26.9 21.4 a 0.5 0.5 0 0 0 0.5 0.4 H 98.2 c 0 0 0 0 0 0 c 0.3 0 0.5 -0.2 0.5 -0.5 a 0.6 0.6 0 0 0 0 -0.2 C 95.4 19.4 74.6 1.3 50.2 1.3 c -27 0 -49 22 -49 49 c 0 24.4 18.3 45.3 42.5 48.5 c 0 0 0 0 0.1 0 a 0.5 0.5 0 0 0 0.3 -0.1 a 0.5 0.5 0 0 0 0.2 -0.4 V 77.7 a 0.5 0.5 0 0 0 -0.4 -0.5 c -12.6 -3 -21.4 -14 -21.4 -26.9 c 0 -15.3 12.4 -27.7 27.7 -27.7 z" />
    </svg>
  </g>

  <path
    d="M 113 42.3 l -1.1 -3.3 c -0.9 0.6 -3 1.4 -4.7 1.4 c -2.1 0 -3.6 -1.2 -3.8 -3.4 V 15.8 h 7.2 v -3.2 h -7.2 V 2 h -4.1 v 10.6 H 95 v 3.2 h 4.3 v 22.4 c 0 3.9 2.7 6 6.6 6 c 2.8 0 5.2 -0.9 7.1 -1.9 z M 139.9 38.6 l 0.1 2.5 c 0.1 1.9 1.4 2.9 3.4 2.9 c 0.4 0 0.9 -0.1 1.6 -0.2 v -3.6 c -1 0 -1.5 -0.6 -1.5 -1.7 v -14.1 c 0 -7.8 -4.8 -12.4 -12.6 -12.4 c -3.8 0 -7.7 1.4 -11.8 4.1 l 1.4 2.7 c 2.8 -1.9 6 -3.7 10 -3.7 c 5.5 0 8.8 3.5 8.8 9 v 2.8 c -2.4 -1 -5.9 -1.6 -9.2 -1.6 c -1.9 0 -3.7 0.2 -5.3 0.7 c -4 1.1 -7.8 3.8 -7.8 8.7 c 0 1.4 0.3 2.6 0.8 3.8 c 1.5 3.4 4.8 5.9 9.6 5.9 c 5.6 0 9.9 -2.5 12.5 -5.8 z m -9.2 -10.7 c 3.3 0 6.2 0.7 8.7 1.6 v 5.1 c 0 1 -0.5 1.8 -1.1 2.3 c -1.8 2.5 -5.6 4.4 -9.9 4.4 c -4.2 0 -7.4 -2.7 -7.4 -6.9 c 0 -4.5 4.8 -6.5 9.7 -6.5 z M 154.1 44.2 c 1.8 0 4.4 -0.5 5.6 -1.1 l -0.7 -3.3 c -0.8 0.3 -2.2 0.7 -3.2 0.7 c -2.3 0 -3.7 -1.4 -3.7 -3.7 V 0 H 148 v 38.1 c 0 3.8 2.3 6.1 6.1 6.1 z" />

  <!-- slogan -->
  <path
    d="M 5 66.2 h 25.1 v 1 H 5 z M 129.6 66.2 h 25.1 v 1 h -25.1 z M 33.1 62.7 v 7.9 h 0.9 v -4.3 c 0 -0.3 0 -0.7 0 -1.2 c 0 -0.4 -0.1 -0.8 -0.1 -1.2 h 0.1 l 0.6 1.8 l 1.5 4.1 h 0.6 l 1.5 -4.1 l 0.6 -1.8 h 0.1 c 0 0.3 -0.1 0.7 -0.1 1.2 c 0 0.4 0 0.8 0 1.2 v 4.3 h 0.9 v -7.9 h -1.2 L 37 66.9 l -0.6 1.6 h 0 l -0.6 -1.6 l -1.5 -4.2 z m 12.1 4.7 h -2.4 l 0.4 -1.2 c 0.1 -0.4 0.3 -0.9 0.4 -1.3 c 0.1 -0.4 0.3 -0.9 0.4 -1.3 h 0.1 c 0.1 0.5 0.3 0.9 0.4 1.3 c 0.1 0.4 0.3 0.9 0.4 1.3 z m 0.3 0.8 l 0.8 2.4 h 1.1 l -2.7 -7.9 h -1.1 l -2.7 7.9 h 1 l 0.8 -2.4 z m 2.9 -5.5 v 7.9 h 1 v -2.5 l 1.4 -1.6 l 2.4 4.1 h 1.1 l -2.8 -4.9 l 2.5 -3 h -1.1 l -3.3 4 h 0 v -4 z m 7 0 v 7.9 h 4.7 v -0.8 h -3.7 v -2.9 h 3 v -0.8 h -3 v -2.5 h 3.5 v -0.8 z m 8.8 0 v 7.9 h 4.4 v -0.8 h -3.5 v -7 z m 5.8 0 v 7.9 h 1 v -7.9 z m 3.2 0 v 7.9 H 74 v -4.1 c 0 -0.4 0 -0.8 0 -1.2 l -0.1 -1.2 h 0.1 l 0.8 1.6 l 2.9 5 h 1 v -7.9 h -0.9 v 4.1 c 0 0.4 0 0.8 0 1.3 c 0 0.4 0.1 0.8 0.1 1.2 h -0.1 l -0.8 -1.6 l -2.8 -4.9 z m 7.8 0 v 7.9 h 1 v -2.5 l 1.4 -1.6 l 2.4 4.1 h 1.1 l -2.8 -4.9 l 2.5 -3 h -1.1 l -3.3 4 h 0 v -4 z m 9.4 0 v 7.9 h 1 v -3.5 h 3 v -0.8 h -3 v -2.7 h 3.5 v -0.8 z m 8.8 4.7 h -2.4 l 0.4 -1.2 c 0.1 -0.4 0.3 -0.9 0.4 -1.3 c 0.1 -0.4 0.3 -0.9 0.4 -1.3 h 0.1 c 0.1 0.5 0.3 0.9 0.4 1.3 c 0.1 0.4 0.3 0.9 0.4 1.3 z m 0.3 0.8 l 0.7 2.4 h 1.1 l -2.7 -7.9 H 97.3 l -2.7 7.9 h 1 l 0.8 -2.4 z m 3 0.7 l -0.6 0.7 a 3.8 3.8 0 0 0 2.8 1.2 c 0.4 0 0.8 -0.1 1.1 -0.2 c 0.3 -0.1 0.6 -0.3 0.8 -0.5 c 0.2 -0.2 0.4 -0.4 0.5 -0.7 c 0.1 -0.3 0.2 -0.6 0.2 -0.9 c 0 -0.3 0 -0.5 -0.1 -0.8 c -0.1 -0.2 -0.2 -0.4 -0.3 -0.6 c -0.1 -0.2 -0.3 -0.3 -0.5 -0.4 s -0.4 -0.2 -0.6 -0.3 l -1.1 -0.5 c -0.2 -0.1 -0.3 -0.1 -0.5 -0.2 s -0.3 -0.2 -0.4 -0.3 s -0.2 -0.2 -0.3 -0.3 c -0.1 -0.1 -0.1 -0.3 -0.1 -0.5 c 0 -0.4 0.1 -0.6 0.4 -0.8 c 0.3 -0.2 0.6 -0.3 1.1 -0.3 c 0.4 0 0.7 0.1 1 0.2 c 0.3 0.1 0.6 0.3 0.8 0.5 l 0.5 -0.6 c -0.3 -0.3 -0.6 -0.5 -1 -0.7 s -0.8 -0.3 -1.3 -0.3 c -0.4 0 -0.7 0.1 -1 0.2 s -0.6 0.3 -0.8 0.4 s -0.4 0.4 -0.5 0.7 c -0.1 0.3 -0.2 0.5 -0.2 0.8 s 0.1 0.5 0.1 0.8 c 0.1 0.2 0.2 0.4 0.4 0.6 s 0.3 0.3 0.5 0.4 c 0.2 0.1 0.4 0.2 0.6 0.3 l 1.1 0.5 c 0.2 0.1 0.3 0.2 0.5 0.3 s 0.3 0.2 0.4 0.3 c 0.1 0.1 0.2 0.2 0.3 0.4 s 0.1 0.3 0.1 0.5 c 0 0.4 -0.1 0.7 -0.4 0.9 c -0.3 0.2 -0.7 0.4 -1.2 0.4 c -0.4 0 -0.8 -0.1 -1.2 -0.3 s -0.7 -0.4 -1 -0.7 z m 7.8 -5.3 v 7 h 1 v -7 h 2.4 v -0.8 h -5.8 v 0.8 z m 4.8 -0.8 v 7.9 h 4.7 v -0.8 h -3.7 v -2.9 h 3 v -0.8 h -3 v -2.5 h 3.5 v -0.8 z m 7.3 3.7 v -2.9 h 1.3 c 0.6 0 1.1 0.1 1.4 0.3 c 0.3 0.2 0.5 0.6 0.5 1.1 c 0 0.5 -0.2 0.9 -0.5 1.1 s -0.8 0.4 -1.4 0.4 z m 3.3 4.1 h 1.1 l -2 -3.4 c 0.5 -0.1 1 -0.4 1.3 -0.8 s 0.5 -0.9 0.5 -1.5 c 0 -0.4 -0.1 -0.8 -0.2 -1 c -0.1 -0.3 -0.3 -0.5 -0.6 -0.7 c -0.2 -0.2 -0.5 -0.3 -0.9 -0.4 c -0.3 -0.1 -0.7 -0.1 -1.1 -0.1 h -2.5 v 7.9 h 1 v -3.3 h 1.4 z" />
</svg>