<svg xmlns="http://www.w3.org/2000/svg" xmlns:xlink="http://www.w3.org/1999/xlink" style="margin:auto;background:#f1f2f3;display:block;z-index:1;position:relative" width="2037" height="1321" preserveAspectRatio="xMidYMid" viewBox="0 0 2037 1321">
<g transform="translate(1018.5,660.5) scale(1,1) translate(-1018.5,-660.5)"><path d="M-100 775.96C-62.94 787.3 -63.79 773.67 -27.84 773.67S9.7 775.47 44.32 775.47S81.5 788.72 116.48 788.72S155.74 774.85 188.65 774.85S225.32 777.02 260.81 777.02S299.09 776.48 332.97 776.48S371.18 788.58 405.13 788.58S441.57 787.24 477.29 787.24S513.61 785.11 549.45 785.11S587.74 785.1 621.61 785.1S659.74 790.98 693.77 790.98S731.16 778.2 765.94 778.2S803.22 788.03 838.1 788.03S876.45 769.49 910.26 769.49S946.41 795.57 982.42 795.57S1019.79 772.7 1054.58 772.7S1092.37 775.99 1126.74 775.99S1163.33 795.09 1198.9 795.09S1236.41 792.88 1271.06 792.88S1308.05 773.4 1343.23 773.4S1382.31 792.7 1415.39 792.7S1453.65 769.96 1487.55 769.96S1524.14 797.33 1559.71 797.33S1597.64 779.13 1631.87 779.13S1670.19 771.9 1704.03 771.9S1740.17 790.39 1776.19 790.39S1812.41 798.52 1848.35 798.52S1885.12 769.93 1920.52 769.93S1958.09 794.19 1992.68 794.19S2030.85 791.57 2064.84 791.57S2103.86 784.53 2137 784.53S2175.14 798.3 2209.16 798.3L2137 1321 L-100 1321 Z" fill="#85a2b6" stroke-width="0">
  <animate attributeName="d" dur="25s" repeatCount="indefinite" values="M-100 775.96C-62.94 787.3 -63.79 773.67 -27.84 773.67S9.7 775.47 44.32 775.47S81.5 788.72 116.48 788.72S155.74 774.85 188.65 774.85S225.32 777.02 260.81 777.02S299.09 776.48 332.97 776.48S371.18 788.58 405.13 788.58S441.57 787.24 477.29 787.24S513.61 785.11 549.45 785.11S587.74 785.1 621.61 785.1S659.74 790.98 693.77 790.98S731.16 778.2 765.94 778.2S803.22 788.03 838.1 788.03S876.45 769.49 910.26 769.49S946.41 795.57 982.42 795.57S1019.79 772.7 1054.58 772.7S1092.37 775.99 1126.74 775.99S1163.33 795.09 1198.9 795.09S1236.41 792.88 1271.06 792.88S1308.05 773.4 1343.23 773.4S1382.31 792.7 1415.39 792.7S1453.65 769.96 1487.55 769.96S1524.14 797.33 1559.71 797.33S1597.64 779.13 1631.87 779.13S1670.19 771.9 1704.03 771.9S1740.17 790.39 1776.19 790.39S1812.41 798.52 1848.35 798.52S1885.12 769.93 1920.52 769.93S1958.09 794.19 1992.68 794.19S2030.85 791.57 2064.84 791.57S2103.86 784.53 2137 784.53S2175.14 798.3 2209.16 798.3L2137 1321 L-100 1321 Z;M-100 790.56C-62.56 785.91 -62.33 796.31 -27.84 796.31S8.86 795.06 44.32 795.06S82.55 767.54 116.48 767.54S154.74 778.92 188.65 778.92S226.06 781.05 260.81 781.05S299.28 786.42 332.97 786.42S371.98 785.64 405.13 785.64S443.21 766.59 477.29 766.59S515.93 785.26 549.45 785.26S588.8 797.74 621.61 797.74S658.13 773.19 693.77 773.19S730.05 794.45 765.94 794.45S804.93 789.15 838.1 789.15S876.04 788.62 910.26 788.62S946.63 790.43 982.42 790.43S1018.77 777.59 1054.58 777.59S1093.41 779.91 1126.74 779.91S1164.83 782.09 1198.9 782.09S1235.88 790.74 1271.06 790.74S1307.68 771.59 1343.23 771.59S1381.11 792.31 1415.39 792.31S1451.5 792.57 1487.55 792.57S1525.88 778.99 1559.71 778.99S1598.68 769.31 1631.87 769.31S1668.76 799.01 1704.03 799.01S1743.25 787.39 1776.19 787.39S1813.47 780.29 1848.35 780.29S1885.06 776.22 1920.52 776.22S1957.2 785.16 1992.68 785.16S2031.66 772.13 2064.84 772.13S2103.94 787.64 2137 787.64S2174.08 770.49 2209.16 770.49L2137 1321 L-100 1321 Z;M-100 775.96C-62.94 787.3 -63.79 773.67 -27.84 773.67S9.7 775.47 44.32 775.47S81.5 788.72 116.48 788.72S155.74 774.85 188.65 774.85S225.32 777.02 260.81 777.02S299.09 776.48 332.97 776.48S371.18 788.58 405.13 788.58S441.57 787.24 477.29 787.24S513.61 785.11 549.45 785.11S587.74 785.1 621.61 785.1S659.74 790.98 693.77 790.98S731.16 778.2 765.94 778.2S803.22 788.03 838.1 788.03S876.45 769.49 910.26 769.49S946.41 795.57 982.42 795.57S1019.79 772.7 1054.58 772.7S1092.37 775.99 1126.74 775.99S1163.33 795.09 1198.9 795.09S1236.41 792.88 1271.06 792.88S1308.05 773.4 1343.23 773.4S1382.31 792.7 1415.39 792.7S1453.65 769.96 1487.55 769.96S1524.14 797.33 1559.71 797.33S1597.64 779.13 1631.87 779.13S1670.19 771.9 1704.03 771.9S1740.17 790.39 1776.19 790.39S1812.41 798.52 1848.35 798.52S1885.12 769.93 1920.52 769.93S1958.09 794.19 1992.68 794.19S2030.85 791.57 2064.84 791.57S2103.86 784.53 2137 784.53S2175.14 798.3 2209.16 798.3L2137 1321 L-100 1321 Z"></animate>
  <animateTransform attributeName="transform" type="translate" dur="25s" begin="0s" repeatCount="indefinite" values="0;10;0" calcMode="spline" keySplines="0.3 0 0.7 1;0.3 0 0.7 1"></animateTransform>
</path><path d="M-100 817.35C-60.63 816.61 -60.64 810.79 -25.93 810.79S11.71 811.48 48.15 811.48S86.61 835.18 122.22 835.18S160.02 803.42 196.29 803.42S236.14 835.99 270.36 835.99S309.44 815.37 344.44 815.37S381.88 801.07 418.51 801.07S458.34 824.07 492.58 824.07S530.72 823.23 566.66 823.23S606.36 829.55 640.73 829.55S680.65 820.87 714.8 820.87S753.02 801.96 788.87 801.96S828.55 816.47 862.95 816.47S902.09 817.01 937.02 817.01S975.64 829.16 1011.09 829.16S1048.38 812.73 1085.17 812.73S1123.37 838.59 1159.24 838.59S1198.42 804.1 1233.31 804.1S1271.54 834.05 1307.38 834.05S1346.53 809.49 1381.46 809.49S1419.3 818.47 1455.53 818.47S1493.32 815.6 1529.6 815.6S1569.94 828.59 1603.68 828.59S1643.28 812.85 1677.75 812.85S1716.95 820.24 1751.82 820.24S1788.93 814.54 1825.89 814.54S1865.86 831.03 1899.97 831.03S1937.48 806.58 1974.04 806.58S2013.86 829.16 2048.11 829.16S2088.42 808.69 2122.19 808.69S2161.95 825.12 2196.26 825.12L2137 1321 L-100 1321 Z" fill="#8aa6ba" stroke-width="0">
  <animate attributeName="d" dur="22.5s" repeatCount="indefinite" values="M-100 817.35C-60.63 816.61 -60.64 810.79 -25.93 810.79S11.71 811.48 48.15 811.48S86.61 835.18 122.22 835.18S160.02 803.42 196.29 803.42S236.14 835.99 270.36 835.99S309.44 815.37 344.44 815.37S381.88 801.07 418.51 801.07S458.34 824.07 492.58 824.07S530.72 823.23 566.66 823.23S606.36 829.55 640.73 829.55S680.65 820.87 714.8 820.87S753.02 801.96 788.87 801.96S828.55 816.47 862.95 816.47S902.09 817.01 937.02 817.01S975.64 829.16 1011.09 829.16S1048.38 812.73 1085.17 812.73S1123.37 838.59 1159.24 838.59S1198.42 804.1 1233.31 804.1S1271.54 834.05 1307.38 834.05S1346.53 809.49 1381.46 809.49S1419.3 818.47 1455.53 818.47S1493.32 815.6 1529.6 815.6S1569.94 828.59 1603.68 828.59S1643.28 812.85 1677.75 812.85S1716.95 820.24 1751.82 820.24S1788.93 814.54 1825.89 814.54S1865.86 831.03 1899.97 831.03S1937.48 806.58 1974.04 806.58S2013.86 829.16 2048.11 829.16S2088.42 808.69 2122.19 808.69S2161.95 825.12 2196.26 825.12L2137 1321 L-100 1321 Z;M-100 827.84C-62.28 831.35 -60.4 827.19 -25.93 827.19S11.56 815.58 48.15 815.58S87.39 821.82 122.22 821.82S161.95 830.29 196.29 830.29S233.45 823.35 270.36 823.35S310.16 801.87 344.44 801.87S383.14 799.3 418.51 799.3S458.05 804.17 492.58 804.17S531.47 822.29 566.66 822.29S606.62 808.51 640.73 808.51S678.92 803.59 714.8 803.59S753.46 820.11 788.87 820.11S826.57 818.84 862.95 818.84S902.33 835.14 937.02 835.14S975.07 836.82 1011.09 836.82S1051.39 813.28 1085.17 813.28S1125.46 826.8 1159.24 826.8S1196.28 807.69 1233.31 807.69S1272.38 833.28 1307.38 833.28S1346.87 805.99 1381.46 805.99S1421.05 809.65 1455.53 809.65S1494.08 819.47 1529.6 819.47S1567.64 820.11 1603.68 820.11S1640.89 822.23 1677.75 822.23S1717.29 820.5 1751.82 820.5S1791.2 821.73 1825.89 821.73S1864.17 833.95 1899.97 833.95S1939.6 835.07 1974.04 835.07S2012.27 825.59 2048.11 825.59S2085.5 812.21 2122.19 812.21S2160.06 824.12 2196.26 824.12L2137 1321 L-100 1321 Z;M-100 817.35C-60.63 816.61 -60.64 810.79 -25.93 810.79S11.71 811.48 48.15 811.48S86.61 835.18 122.22 835.18S160.02 803.42 196.29 803.42S236.14 835.99 270.36 835.99S309.44 815.37 344.44 815.37S381.88 801.07 418.51 801.07S458.34 824.07 492.58 824.07S530.72 823.23 566.66 823.23S606.36 829.55 640.73 829.55S680.65 820.87 714.8 820.87S753.02 801.96 788.87 801.96S828.55 816.47 862.95 816.47S902.09 817.01 937.02 817.01S975.64 829.16 1011.09 829.16S1048.38 812.73 1085.17 812.73S1123.37 838.59 1159.24 838.59S1198.42 804.1 1233.31 804.1S1271.54 834.05 1307.38 834.05S1346.53 809.49 1381.46 809.49S1419.3 818.47 1455.53 818.47S1493.32 815.6 1529.6 815.6S1569.94 828.59 1603.68 828.59S1643.28 812.85 1677.75 812.85S1716.95 820.24 1751.82 820.24S1788.93 814.54 1825.89 814.54S1865.86 831.03 1899.97 831.03S1937.48 806.58 1974.04 806.58S2013.86 829.16 2048.11 829.16S2088.42 808.69 2122.19 808.69S2161.95 825.12 2196.26 825.12L2137 1321 L-100 1321 Z"></animate>
  <animateTransform attributeName="transform" type="translate" dur="22.5s" begin="-2.25s" repeatCount="indefinite" values="0;10;0" calcMode="spline" keySplines="0.3 0 0.7 1;0.3 0 0.7 1"></animateTransform>
</path><path d="M-100 839C-60.72 835.36 -59.61 850.25 -23.91 850.25S15.22 838.18 52.18 838.18S92.06 860.98 128.27 860.98S169.33 844.21 204.35 844.21S242.46 853.22 280.44 853.22S321.73 861.94 356.53 861.94S396.24 856.81 432.62 856.81S472.21 840.15 508.71 840.15S548.19 864.9 584.8 864.9S623.49 843.14 660.88 843.14S701.72 877.84 736.97 877.84S775.99 871.85 813.06 871.85S853.3 866.26 889.15 866.26S929.42 836.17 965.24 836.17S1003.81 869.16 1041.33 869.16S1081.3 840.42 1117.41 840.42S1155.85 839.02 1193.5 839.02S1233.98 844.54 1269.59 844.54S1308.79 849.13 1345.68 849.13S1384.22 863.96 1421.77 863.96S1461.47 867.56 1497.86 867.56S1536.36 846.49 1573.95 846.49S1614 862.58 1650.03 862.58S1690.28 837.97 1726.12 837.97S1765.8 846.93 1802.21 846.93S1841.69 858.15 1878.3 858.15S1916.93 855.95 1954.39 855.95S1994.22 861.83 2030.48 861.83S2070.48 855.25 2106.56 855.25S2146.96 845.83 2182.65 845.83L2137 1321 L-100 1321 Z" fill="#90abbe" stroke-width="0">
  <animate attributeName="d" dur="20s" repeatCount="indefinite" values="M-100 839C-60.72 835.36 -59.61 850.25 -23.91 850.25S15.22 838.18 52.18 838.18S92.06 860.98 128.27 860.98S169.33 844.21 204.35 844.21S242.46 853.22 280.44 853.22S321.73 861.94 356.53 861.94S396.24 856.81 432.62 856.81S472.21 840.15 508.71 840.15S548.19 864.9 584.8 864.9S623.49 843.14 660.88 843.14S701.72 877.84 736.97 877.84S775.99 871.85 813.06 871.85S853.3 866.26 889.15 866.26S929.42 836.17 965.24 836.17S1003.81 869.16 1041.33 869.16S1081.3 840.42 1117.41 840.42S1155.85 839.02 1193.5 839.02S1233.98 844.54 1269.59 844.54S1308.79 849.13 1345.68 849.13S1384.22 863.96 1421.77 863.96S1461.47 867.56 1497.86 867.56S1536.36 846.49 1573.95 846.49S1614 862.58 1650.03 862.58S1690.28 837.97 1726.12 837.97S1765.8 846.93 1802.21 846.93S1841.69 858.15 1878.3 858.15S1916.93 855.95 1954.39 855.95S1994.22 861.83 2030.48 861.83S2070.48 855.25 2106.56 855.25S2146.96 845.83 2182.65 845.83L2137 1321 L-100 1321 Z;M-100 833.83C-60.42 862.13 -61.65 866.61 -23.91 866.61S16.94 844.36 52.18 844.36S92.09 858.4 128.27 858.4S167.64 860.68 204.35 860.68S242.49 855.05 280.44 855.05S320.62 861.05 356.53 861.05S396.75 848.22 432.62 848.22S471.6 838.59 508.71 838.59S547.55 872.15 584.8 872.15S625.03 857.72 660.88 857.72S699.24 874.23 736.97 874.23S776.08 854.49 813.06 854.49S853.91 847.79 889.15 847.79S927.55 834.48 965.24 834.48S1004.31 876.72 1041.33 876.72S1079.66 849.55 1117.41 849.55S1156.58 868.4 1193.5 868.4S1234.32 847.92 1269.59 847.92S1309.2 867.61 1345.68 867.61S1386.6 864.89 1421.77 864.89S1461.38 870.2 1497.86 870.2S1538.04 852.95 1573.95 852.95S1613.14 869.45 1650.03 869.45S1690.42 855.22 1726.12 855.22S1766.76 866.13 1802.21 866.13S1842.71 874.56 1878.3 874.56S1917.3 860.24 1954.39 860.24S1994.72 848.55 2030.48 848.55S2071.4 863.39 2106.56 863.39S2147.79 833.36 2182.65 833.36L2137 1321 L-100 1321 Z;M-100 839C-60.72 835.36 -59.61 850.25 -23.91 850.25S15.22 838.18 52.18 838.18S92.06 860.98 128.27 860.98S169.33 844.21 204.35 844.21S242.46 853.22 280.44 853.22S321.73 861.94 356.53 861.94S396.24 856.81 432.62 856.81S472.21 840.15 508.71 840.15S548.19 864.9 584.8 864.9S623.49 843.14 660.88 843.14S701.72 877.84 736.97 877.84S775.99 871.85 813.06 871.85S853.3 866.26 889.15 866.26S929.42 836.17 965.24 836.17S1003.81 869.16 1041.33 869.16S1081.3 840.42 1117.41 840.42S1155.85 839.02 1193.5 839.02S1233.98 844.54 1269.59 844.54S1308.79 849.13 1345.68 849.13S1384.22 863.96 1421.77 863.96S1461.47 867.56 1497.86 867.56S1536.36 846.49 1573.95 846.49S1614 862.58 1650.03 862.58S1690.28 837.97 1726.12 837.97S1765.8 846.93 1802.21 846.93S1841.69 858.15 1878.3 858.15S1916.93 855.95 1954.39 855.95S1994.22 861.83 2030.48 861.83S2070.48 855.25 2106.56 855.25S2146.96 845.83 2182.65 845.83L2137 1321 L-100 1321 Z"></animate>
  <animateTransform attributeName="transform" type="translate" dur="20s" begin="-4s" repeatCount="indefinite" values="0;10;0" calcMode="spline" keySplines="0.3 0 0.7 1;0.3 0 0.7 1"></animateTransform>
</path><path d="M-100 914.31C-58.88 911.7 -59.45 903.95 -21.78 903.95S19.99 887.72 56.43 887.72S96.34 909.55 134.65 909.55S174.43 866.32 212.87 866.32S252.41 898.88 291.08 898.88S330.25 881.37 369.3 881.37S410.51 892.52 447.52 892.52S489.25 877.63 525.73 877.63S567.56 886.46 603.95 886.46S645.97 871.47 682.17 871.47S722.37 894.67 760.38 894.67S802.75 890.69 838.6 890.69S878.75 883.15 916.82 883.15S957.93 869.2 995.03 869.2S1036.12 913.66 1073.25 913.66S1113.72 866.14 1151.47 866.14S1193.39 913.6 1229.69 913.6S1269.73 882.24 1307.9 882.24S1348.93 887.09 1386.12 887.09S1425.34 897.32 1464.34 897.32S1505.92 909.24 1542.55 909.24S1582.04 877.23 1620.77 877.23S1661.7 906.38 1698.99 906.38S1740.59 895.07 1777.2 895.07S1818.95 895.8 1855.42 895.8S1894.55 876.67 1933.64 876.67S1974.07 888.68 2011.85 888.68S2052.14 875.75 2090.07 875.75S2131.75 896.33 2168.29 896.33L2137 1321 L-100 1321 Z" fill="#95afc2" stroke-width="0">
  <animate attributeName="d" dur="17.5s" repeatCount="indefinite" values="M-100 914.31C-58.88 911.7 -59.45 903.95 -21.78 903.95S19.99 887.72 56.43 887.72S96.34 909.55 134.65 909.55S174.43 866.32 212.87 866.32S252.41 898.88 291.08 898.88S330.25 881.37 369.3 881.37S410.51 892.52 447.52 892.52S489.25 877.63 525.73 877.63S567.56 886.46 603.95 886.46S645.97 871.47 682.17 871.47S722.37 894.67 760.38 894.67S802.75 890.69 838.6 890.69S878.75 883.15 916.82 883.15S957.93 869.2 995.03 869.2S1036.12 913.66 1073.25 913.66S1113.72 866.14 1151.47 866.14S1193.39 913.6 1229.69 913.6S1269.73 882.24 1307.9 882.24S1348.93 887.09 1386.12 887.09S1425.34 897.32 1464.34 897.32S1505.92 909.24 1542.55 909.24S1582.04 877.23 1620.77 877.23S1661.7 906.38 1698.99 906.38S1740.59 895.07 1777.2 895.07S1818.95 895.8 1855.42 895.8S1894.55 876.67 1933.64 876.67S1974.07 888.68 2011.85 888.68S2052.14 875.75 2090.07 875.75S2131.75 896.33 2168.29 896.33L2137 1321 L-100 1321 Z;M-100 882.24C-58.05 868.57 -58.36 905.34 -21.78 905.34S20.18 890.67 56.43 890.67S96.53 898.96 134.65 898.96S174.21 872.5 212.87 872.5S255.01 911.46 291.08 911.46S330.67 884.64 369.3 884.64S411.25 911.31 447.52 911.31S488.9 885.95 525.73 885.95S565.98 894.38 603.95 894.38S643.59 895.68 682.17 895.68S721.39 892.62 760.38 892.62S801.46 899.92 838.6 899.92S879.26 908.02 916.82 908.02S956.86 869.27 995.03 869.27S1036.05 866.41 1073.25 866.41S1113.03 886.72 1151.47 886.72S1193.04 900.19 1229.69 900.19S1271.75 896.73 1307.9 896.73S1347.59 891.36 1386.12 891.36S1425.64 866.64 1464.34 866.64S1503.54 904.55 1542.55 904.55S1583.16 868.97 1620.77 868.97S1662.51 911.29 1698.99 911.29S1739.67 907.46 1777.2 907.46S1816.37 875.5 1855.42 875.5S1895.19 865.45 1933.64 865.45S1973.68 885.64 2011.85 885.64S2052.71 889.72 2090.07 889.72S2131.85 916.73 2168.29 916.73L2137 1321 L-100 1321 Z;M-100 914.31C-58.88 911.7 -59.45 903.95 -21.78 903.95S19.99 887.72 56.43 887.72S96.34 909.55 134.65 909.55S174.43 866.32 212.87 866.32S252.41 898.88 291.08 898.88S330.25 881.37 369.3 881.37S410.51 892.52 447.52 892.52S489.25 877.63 525.73 877.63S567.56 886.46 603.95 886.46S645.97 871.47 682.17 871.47S722.37 894.67 760.38 894.67S802.75 890.69 838.6 890.69S878.75 883.15 916.82 883.15S957.93 869.2 995.03 869.2S1036.12 913.66 1073.25 913.66S1113.72 866.14 1151.47 866.14S1193.39 913.6 1229.69 913.6S1269.73 882.24 1307.9 882.24S1348.93 887.09 1386.12 887.09S1425.34 897.32 1464.34 897.32S1505.92 909.24 1542.55 909.24S1582.04 877.23 1620.77 877.23S1661.7 906.38 1698.99 906.38S1740.59 895.07 1777.2 895.07S1818.95 895.8 1855.42 895.8S1894.55 876.67 1933.64 876.67S1974.07 888.68 2011.85 888.68S2052.14 875.75 2090.07 875.75S2131.75 896.33 2168.29 896.33L2137 1321 L-100 1321 Z"></animate>
  <animateTransform attributeName="transform" type="translate" dur="17.5s" begin="-5.25s" repeatCount="indefinite" values="0;10;0" calcMode="spline" keySplines="0.3 0 0.7 1;0.3 0 0.7 1"></animateTransform>
</path><path d="M-100 920.36C-58.18 927.03 -58.04 937.37 -19.53 937.37S22.38 927.62 60.94 927.62S101.84 957.67 141.4 957.67S182.04 918.02 221.87 918.02S263.3 950.59 302.34 950.59S343.49 912.33 382.81 912.33S424.83 932.89 463.27 932.89S504.06 907.82 543.74 907.82S586.19 927.27 624.21 927.27S666.75 940 704.68 940S746.56 935.14 785.14 935.14S828.42 917.72 865.61 917.72S905.96 927.8 946.08 927.8S987.84 928.37 1026.55 928.37S1069.7 929.82 1107.01 929.82S1147.68 929.31 1187.48 929.31S1229.78 936.9 1267.95 936.9S1309.86 899.5 1348.42 899.5S1389.82 908.01 1428.88 908.01S1470.51 899.47 1509.35 899.47S1550.93 915.48 1589.82 915.48S1632.3 898.62 1670.29 898.62S1712.32 935.91 1750.76 935.91S1793.79 915.44 1831.22 915.44S1871.76 927.68 1911.69 927.68S1953.7 915.94 1992.16 915.94S2035.62 955.87 2072.63 955.87S2115.45 907.24 2153.09 907.24L2137 1321 L-100 1321 Z" fill="#9bb3c5" stroke-width="0">
  <animate attributeName="d" dur="15s" repeatCount="indefinite" values="M-100 920.36C-58.18 927.03 -58.04 937.37 -19.53 937.37S22.38 927.62 60.94 927.62S101.84 957.67 141.4 957.67S182.04 918.02 221.87 918.02S263.3 950.59 302.34 950.59S343.49 912.33 382.81 912.33S424.83 932.89 463.27 932.89S504.06 907.82 543.74 907.82S586.19 927.27 624.21 927.27S666.75 940 704.68 940S746.56 935.14 785.14 935.14S828.42 917.72 865.61 917.72S905.96 927.8 946.08 927.8S987.84 928.37 1026.55 928.37S1069.7 929.82 1107.01 929.82S1147.68 929.31 1187.48 929.31S1229.78 936.9 1267.95 936.9S1309.86 899.5 1348.42 899.5S1389.82 908.01 1428.88 908.01S1470.51 899.47 1509.35 899.47S1550.93 915.48 1589.82 915.48S1632.3 898.62 1670.29 898.62S1712.32 935.91 1750.76 935.91S1793.79 915.44 1831.22 915.44S1871.76 927.68 1911.69 927.68S1953.7 915.94 1992.16 915.94S2035.62 955.87 2072.63 955.87S2115.45 907.24 2153.09 907.24L2137 1321 L-100 1321 Z;M-100 920.98C-56.91 920.31 -57.24 931.72 -19.53 931.72S22.79 923.22 60.94 923.22S102.84 954.44 141.4 954.44S184.36 916.03 221.87 916.03S264.92 934.65 302.34 934.65S342.61 913.19 382.81 913.19S425.33 933.33 463.27 933.33S506.55 931.17 543.74 931.17S586.04 946.22 624.21 946.22S665.18 904.9 704.68 904.9S747.37 926.89 785.14 926.89S826.76 933.44 865.61 933.44S908.75 934.64 946.08 934.64S988.42 908.42 1026.55 908.42S1067.82 904.31 1107.01 904.31S1150.42 902.96 1187.48 902.96S1228.52 945.57 1267.95 945.57S1310.62 905.79 1348.42 905.79S1388.94 938.95 1428.88 938.95S1471.9 906.52 1509.35 906.52S1551.17 927.6 1589.82 927.6S1630.81 921.3 1670.29 921.3S1710.64 942.95 1750.76 942.95S1793.51 903.2 1831.22 903.2S1872.6 938.37 1911.69 938.37S1952.46 907.14 1992.16 907.14S2034.55 924.65 2072.63 924.65S2113.53 919.67 2153.09 919.67L2137 1321 L-100 1321 Z;M-100 920.36C-58.18 927.03 -58.04 937.37 -19.53 937.37S22.38 927.62 60.94 927.62S101.84 957.67 141.4 957.67S182.04 918.02 221.87 918.02S263.3 950.59 302.34 950.59S343.49 912.33 382.81 912.33S424.83 932.89 463.27 932.89S504.06 907.82 543.74 907.82S586.19 927.27 624.21 927.27S666.75 940 704.68 940S746.56 935.14 785.14 935.14S828.42 917.72 865.61 917.72S905.96 927.8 946.08 927.8S987.84 928.37 1026.55 928.37S1069.7 929.82 1107.01 929.82S1147.68 929.31 1187.48 929.31S1229.78 936.9 1267.95 936.9S1309.86 899.5 1348.42 899.5S1389.82 908.01 1428.88 908.01S1470.51 899.47 1509.35 899.47S1550.93 915.48 1589.82 915.48S1632.3 898.62 1670.29 898.62S1712.32 935.91 1750.76 935.91S1793.79 915.44 1831.22 915.44S1871.76 927.68 1911.69 927.68S1953.7 915.94 1992.16 915.94S2035.62 955.87 2072.63 955.87S2115.45 907.24 2153.09 907.24L2137 1321 L-100 1321 Z"></animate>
  <animateTransform attributeName="transform" type="translate" dur="15s" begin="-6s" repeatCount="indefinite" values="0;10;0" calcMode="spline" keySplines="0.3 0 0.7 1;0.3 0 0.7 1"></animateTransform>
</path><path d="M-100 947.06C-57.82 963.47 -57.07 974.11 -17.15 974.11S27.19 960.95 65.7 960.95S109.18 988.81 148.56 988.81S192.1 947.84 231.41 947.84S273.51 967.36 314.26 967.36S358.17 944.94 397.11 944.94S438.79 966.31 479.96 966.31S522.59 940.95 562.81 940.95S605.68 934.03 645.67 934.03S689.37 957.95 728.52 957.95S772.93 976.07 811.37 976.07S854.52 939.82 894.22 939.82S936.81 975.14 977.07 975.14S1021.46 932.76 1059.93 932.76S1104.03 981.61 1142.78 981.61S1186.37 959.55 1225.63 959.55S1267.34 976.72 1308.48 976.72S1353.17 934.56 1391.33 934.56S1434.16 973 1474.19 973S1515.97 934.96 1557.04 934.96S1601.74 967.74 1639.89 967.74S1683.18 936.56 1722.74 936.56S1766.82 980.84 1805.59 980.84S1847.43 940.26 1888.44 940.26S1932.01 973.38 1971.3 973.38S2015.37 955.45 2054.15 955.45S2098.75 952 2137 952S2180.59 997.35 2219.85 997.35L2137 1321 L-100 1321 Z" fill="#a0b8c9" stroke-width="0">
  <animate attributeName="d" dur="12.5s" repeatCount="indefinite" values="M-100 947.06C-57.82 963.47 -57.07 974.11 -17.15 974.11S27.19 960.95 65.7 960.95S109.18 988.81 148.56 988.81S192.1 947.84 231.41 947.84S273.51 967.36 314.26 967.36S358.17 944.94 397.11 944.94S438.79 966.31 479.96 966.31S522.59 940.95 562.81 940.95S605.68 934.03 645.67 934.03S689.37 957.95 728.52 957.95S772.93 976.07 811.37 976.07S854.52 939.82 894.22 939.82S936.81 975.14 977.07 975.14S1021.46 932.76 1059.93 932.76S1104.03 981.61 1142.78 981.61S1186.37 959.55 1225.63 959.55S1267.34 976.72 1308.48 976.72S1353.17 934.56 1391.33 934.56S1434.16 973 1474.19 973S1515.97 934.96 1557.04 934.96S1601.74 967.74 1639.89 967.74S1683.18 936.56 1722.74 936.56S1766.82 980.84 1805.59 980.84S1847.43 940.26 1888.44 940.26S1932.01 973.38 1971.3 973.38S2015.37 955.45 2054.15 955.45S2098.75 952 2137 952S2180.59 997.35 2219.85 997.35L2137 1321 L-100 1321 Z;M-100 935.11C-56.96 947.33 -58.33 981.61 -17.15 981.61S25.21 952.13 65.7 952.13S110.38 976.07 148.56 976.07S192.56 941.7 231.41 941.7S275.18 987.16 314.26 987.16S356.9 939.18 397.11 939.18S439.24 987.93 479.96 987.93S522.06 951.22 562.81 951.22S605.17 972.29 645.67 972.29S689.7 960.76 728.52 960.76S771.53 986.29 811.37 986.29S855.48 940.02 894.22 940.02S938.06 994.49 977.07 994.49S1020.66 963.97 1059.93 963.97S1101.59 968.82 1142.78 968.82S1185.1 955.82 1225.63 955.82S1270.07 986.69 1308.48 986.69S1352.87 945.78 1391.33 945.78S1434.15 967.43 1474.19 967.43S1517.05 963.13 1557.04 963.13S1598.75 967.18 1639.89 967.18S1683.45 950.08 1722.74 950.08S1766.75 995.74 1805.59 995.74S1848.11 952.31 1888.44 952.31S1931.37 981.41 1971.3 981.41S2014.3 986.03 2054.15 986.03S2097.09 973.89 2137 973.89S2181.7 939.32 2219.85 939.32L2137 1321 L-100 1321 Z;M-100 947.06C-57.82 963.47 -57.07 974.11 -17.15 974.11S27.19 960.95 65.7 960.95S109.18 988.81 148.56 988.81S192.1 947.84 231.41 947.84S273.51 967.36 314.26 967.36S358.17 944.94 397.11 944.94S438.79 966.31 479.96 966.31S522.59 940.95 562.81 940.95S605.68 934.03 645.67 934.03S689.37 957.95 728.52 957.95S772.93 976.07 811.37 976.07S854.52 939.82 894.22 939.82S936.81 975.14 977.07 975.14S1021.46 932.76 1059.93 932.76S1104.03 981.61 1142.78 981.61S1186.37 959.55 1225.63 959.55S1267.34 976.72 1308.48 976.72S1353.17 934.56 1391.33 934.56S1434.16 973 1474.19 973S1515.97 934.96 1557.04 934.96S1601.74 967.74 1639.89 967.74S1683.18 936.56 1722.74 936.56S1766.82 980.84 1805.59 980.84S1847.43 940.26 1888.44 940.26S1932.01 973.38 1971.3 973.38S2015.37 955.45 2054.15 955.45S2098.75 952 2137 952S2180.59 997.35 2219.85 997.35L2137 1321 L-100 1321 Z"></animate>
  <animateTransform attributeName="transform" type="translate" dur="12.5s" begin="-6.25s" repeatCount="indefinite" values="0;10;0" calcMode="spline" keySplines="0.3 0 0.7 1;0.3 0 0.7 1"></animateTransform>
</path><path d="M-100 968.5C-54.95 974.83 -55.6 1035 -14.62 1035S31.37 986.45 70.76 986.45S116.06 1031.34 156.15 1031.34S200.76 978.12 241.53 978.12S287.38 1013.36 326.91 1013.36S370.61 964.55 412.29 964.55S456.19 1009.51 497.67 1009.51S541.43 979.56 583.05 979.56S626.41 1032.32 668.44 1032.32S713.39 972.34 753.82 972.34S797.67 1018.62 839.2 1018.62S883.47 971.31 924.58 971.31S967.53 1015.69 1009.96 1015.69S1054.9 1027.49 1095.34 1027.49S1139.85 991.97 1180.73 991.97S1223.58 1010.79 1266.11 1010.79S1310.45 1009.48 1351.49 1009.48S1394.43 969.52 1436.87 969.52S1480.91 1026.51 1522.25 1026.51S1565.58 990.22 1607.63 990.22S1650.79 1017.94 1693.02 1017.94S1735.8 983.63 1778.4 983.63S1821.27 979.1 1863.78 979.1S1909.01 969.37 1949.16 969.37S1994.66 1006.68 2034.54 1006.68S2079.83 973.26 2119.92 973.26S2165.25 977.49 2205.31 977.49L2137 1321 L-100 1321 Z" fill="#a5bccd" stroke-width="0">
  <animate attributeName="d" dur="10s" repeatCount="indefinite" values="M-100 968.5C-54.95 974.83 -55.6 1035 -14.62 1035S31.37 986.45 70.76 986.45S116.06 1031.34 156.15 1031.34S200.76 978.12 241.53 978.12S287.38 1013.36 326.91 1013.36S370.61 964.55 412.29 964.55S456.19 1009.51 497.67 1009.51S541.43 979.56 583.05 979.56S626.41 1032.32 668.44 1032.32S713.39 972.34 753.82 972.34S797.67 1018.62 839.2 1018.62S883.47 971.31 924.58 971.31S967.53 1015.69 1009.96 1015.69S1054.9 1027.49 1095.34 1027.49S1139.85 991.97 1180.73 991.97S1223.58 1010.79 1266.11 1010.79S1310.45 1009.48 1351.49 1009.48S1394.43 969.52 1436.87 969.52S1480.91 1026.51 1522.25 1026.51S1565.58 990.22 1607.63 990.22S1650.79 1017.94 1693.02 1017.94S1735.8 983.63 1778.4 983.63S1821.27 979.1 1863.78 979.1S1909.01 969.37 1949.16 969.37S1994.66 1006.68 2034.54 1006.68S2079.83 973.26 2119.92 973.26S2165.25 977.49 2205.31 977.49L2137 1321 L-100 1321 Z;M-100 974.59C-54.85 992.77 -57.26 1022.43 -14.62 1022.43S30.68 970.95 70.76 970.95S114.61 1014.87 156.15 1014.87S201.91 982.53 241.53 982.53S286.88 1005.57 326.91 1005.57S371.52 971.41 412.29 971.41S457.29 1008.21 497.67 1008.21S541.63 993.38 583.05 993.38S628.12 1032.8 668.44 1032.8S711.18 1027.4 753.82 1027.4S798.04 1008.4 839.2 1008.4S883.32 990.98 924.58 990.98S968.1 1020.75 1009.96 1020.75S1054.61 970.25 1095.34 970.25S1140.54 1010.05 1180.73 1010.05S1225.93 969.72 1266.11 969.72S1311.48 1006.41 1351.49 1006.41S1395.12 987.6 1436.87 987.6S1480.5 1012.75 1522.25 1012.75S1567.8 994.37 1607.63 994.37S1653.1 1015.33 1693.02 1015.33S1735.81 1026.01 1778.4 1026.01S1822.43 1032.89 1863.78 1032.89S1908.93 1014.01 1949.16 1014.01S1993.63 1004.32 2034.54 1004.32S2079.62 980.35 2119.92 980.35S2162.81 1030.14 2205.31 1030.14L2137 1321 L-100 1321 Z;M-100 968.5C-54.95 974.83 -55.6 1035 -14.62 1035S31.37 986.45 70.76 986.45S116.06 1031.34 156.15 1031.34S200.76 978.12 241.53 978.12S287.38 1013.36 326.91 1013.36S370.61 964.55 412.29 964.55S456.19 1009.51 497.67 1009.51S541.43 979.56 583.05 979.56S626.41 1032.32 668.44 1032.32S713.39 972.34 753.82 972.34S797.67 1018.62 839.2 1018.62S883.47 971.31 924.58 971.31S967.53 1015.69 1009.96 1015.69S1054.9 1027.49 1095.34 1027.49S1139.85 991.97 1180.73 991.97S1223.58 1010.79 1266.11 1010.79S1310.45 1009.48 1351.49 1009.48S1394.43 969.52 1436.87 969.52S1480.91 1026.51 1522.25 1026.51S1565.58 990.22 1607.63 990.22S1650.79 1017.94 1693.02 1017.94S1735.8 983.63 1778.4 983.63S1821.27 979.1 1863.78 979.1S1909.01 969.37 1949.16 969.37S1994.66 1006.68 2034.54 1006.68S2079.83 973.26 2119.92 973.26S2165.25 977.49 2205.31 977.49L2137 1321 L-100 1321 Z"></animate>
  <animateTransform attributeName="transform" type="translate" dur="10s" begin="-6s" repeatCount="indefinite" values="0;10;0" calcMode="spline" keySplines="0.3 0 0.7 1;0.3 0 0.7 1"></animateTransform>
</path><path d="M-100 1004.51C-55.56 1019.39 -54.34 1018.48 -11.93 1018.48S32.89 1021.12 76.14 1021.12S120.3 1052.93 164.21 1052.93S211.42 1016.52 252.28 1016.52S298.34 1001.23 340.35 1001.23S386.49 1007.4 428.43 1007.4S474.58 1073.24 516.5 1073.24S563.1 999.21 604.57 999.21S649.45 1062.56 692.64 1062.56S738.14 1028.63 780.71 1028.63S825.57 1030.1 868.78 1030.1S914.61 1005.05 956.85 1005.05S1002.04 1064.69 1044.92 1064.69S1091.09 1052.7 1132.99 1052.7S1177.3 1016.66 1221.06 1016.66S1266.57 1016.88 1309.13 1016.88S1354.37 1075.8 1397.2 1075.8S1442.85 1022.91 1485.28 1022.91S1531.07 1064.74 1573.35 1064.74S1618.72 1052.95 1661.42 1052.95S1707.96 1023.92 1749.49 1023.92S1796.82 997.89 1837.56 997.89S1881.8 1050.52 1925.63 1050.52S1970.21 1018.08 2013.7 1018.08S2060.32 1053.18 2101.77 1053.18S2146.46 1011.12 2189.84 1011.12L2137 1321 L-100 1321 Z" fill="#abc1d1" stroke-width="0">
  <animate attributeName="d" dur="7.5s" repeatCount="indefinite" values="M-100 1004.51C-55.56 1019.39 -54.34 1018.48 -11.93 1018.48S32.89 1021.12 76.14 1021.12S120.3 1052.93 164.21 1052.93S211.42 1016.52 252.28 1016.52S298.34 1001.23 340.35 1001.23S386.49 1007.4 428.43 1007.4S474.58 1073.24 516.5 1073.24S563.1 999.21 604.57 999.21S649.45 1062.56 692.64 1062.56S738.14 1028.63 780.71 1028.63S825.57 1030.1 868.78 1030.1S914.61 1005.05 956.85 1005.05S1002.04 1064.69 1044.92 1064.69S1091.09 1052.7 1132.99 1052.7S1177.3 1016.66 1221.06 1016.66S1266.57 1016.88 1309.13 1016.88S1354.37 1075.8 1397.2 1075.8S1442.85 1022.91 1485.28 1022.91S1531.07 1064.74 1573.35 1064.74S1618.72 1052.95 1661.42 1052.95S1707.96 1023.92 1749.49 1023.92S1796.82 997.89 1837.56 997.89S1881.8 1050.52 1925.63 1050.52S1970.21 1018.08 2013.7 1018.08S2060.32 1053.18 2101.77 1053.18S2146.46 1011.12 2189.84 1011.12L2137 1321 L-100 1321 Z;M-100 1026.24C-55.19 1023.33 -55.01 1050.59 -11.93 1050.59S35.31 1072.65 76.14 1072.65S122.97 1051.31 164.21 1051.31S210.69 1003.66 252.28 1003.66S297.14 1060.36 340.35 1060.36S386.12 1014.75 428.43 1014.75S474.89 1069.69 516.5 1069.69S561.61 1015.02 604.57 1015.02S651.6 1045.62 692.64 1045.62S737.17 1003.85 780.71 1003.85S827.33 1046.72 868.78 1046.72S913.36 1002.47 956.85 1002.47S1004.03 1044.14 1044.92 1044.14S1089.83 1020.29 1132.99 1020.29S1179.82 1044.22 1221.06 1044.22S1267.35 1016.91 1309.13 1016.91S1355.36 1020.61 1397.2 1020.61S1444.32 1056.55 1485.28 1056.55S1530.24 1067.83 1573.35 1067.83S1617.5 1002.96 1661.42 1002.96S1708.14 1071.7 1749.49 1071.7S1794.13 1011.71 1837.56 1011.71S1882.88 1054.44 1925.63 1054.44S1971.76 1016.39 2013.7 1016.39S2057.79 1048.77 2101.77 1048.77S2146.92 1021.39 2189.84 1021.39L2137 1321 L-100 1321 Z;M-100 1004.51C-55.56 1019.39 -54.34 1018.48 -11.93 1018.48S32.89 1021.12 76.14 1021.12S120.3 1052.93 164.21 1052.93S211.42 1016.52 252.28 1016.52S298.34 1001.23 340.35 1001.23S386.49 1007.4 428.43 1007.4S474.58 1073.24 516.5 1073.24S563.1 999.21 604.57 999.21S649.45 1062.56 692.64 1062.56S738.14 1028.63 780.71 1028.63S825.57 1030.1 868.78 1030.1S914.61 1005.05 956.85 1005.05S1002.04 1064.69 1044.92 1064.69S1091.09 1052.7 1132.99 1052.7S1177.3 1016.66 1221.06 1016.66S1266.57 1016.88 1309.13 1016.88S1354.37 1075.8 1397.2 1075.8S1442.85 1022.91 1485.28 1022.91S1531.07 1064.74 1573.35 1064.74S1618.72 1052.95 1661.42 1052.95S1707.96 1023.92 1749.49 1023.92S1796.82 997.89 1837.56 997.89S1881.8 1050.52 1925.63 1050.52S1970.21 1018.08 2013.7 1018.08S2060.32 1053.18 2101.77 1053.18S2146.46 1011.12 2189.84 1011.12L2137 1321 L-100 1321 Z"></animate>
  <animateTransform attributeName="transform" type="translate" dur="7.5s" begin="-5.25s" repeatCount="indefinite" values="0;10;0" calcMode="spline" keySplines="0.3 0 0.7 1;0.3 0 0.7 1"></animateTransform>
</path><path d="M-100 1039.45C-54.09 1033.9 -51.64 1085.63 -9.07 1085.63S37.76 1053.55 81.87 1053.55S127.46 1088.08 172.8 1088.08S221.16 1042.59 263.74 1042.59S309.58 1061.65 354.67 1061.65S402.82 1046.81 445.61 1046.81S491.27 1087.78 536.54 1087.78S584.85 1033.25 627.48 1033.25S676.17 1102.61 718.41 1102.61S765.25 1049.21 809.35 1049.21S856.7 1086.57 900.28 1086.57S948.36 1045.79 991.22 1045.79S1037.18 1106.37 1082.15 1106.37S1128.81 1040.41 1173.09 1040.41S1221.62 1102.81 1264.02 1102.81S1312.55 1057.94 1354.96 1057.94S1402.23 1088.3 1445.89 1088.3S1492.09 1034.51 1536.83 1034.51S1584.91 1115.7 1627.76 1115.7S1675.91 1044.39 1718.7 1044.39S1765.76 1111.43 1809.63 1111.43S1856.63 1042.45 1900.57 1042.45S1947.49 1113.75 1991.5 1113.75S2039.9 1040.6 2082.44 1040.6S2128.52 1106.57 2173.37 1106.57L2137 1321 L-100 1321 Z" fill="#b0c5d5" stroke-width="0">
  <animate attributeName="d" dur="5s" repeatCount="indefinite" values="M-100 1039.45C-54.09 1033.9 -51.64 1085.63 -9.07 1085.63S37.76 1053.55 81.87 1053.55S127.46 1088.08 172.8 1088.08S221.16 1042.59 263.74 1042.59S309.58 1061.65 354.67 1061.65S402.82 1046.81 445.61 1046.81S491.27 1087.78 536.54 1087.78S584.85 1033.25 627.48 1033.25S676.17 1102.61 718.41 1102.61S765.25 1049.21 809.35 1049.21S856.7 1086.57 900.28 1086.57S948.36 1045.79 991.22 1045.79S1037.18 1106.37 1082.15 1106.37S1128.81 1040.41 1173.09 1040.41S1221.62 1102.81 1264.02 1102.81S1312.55 1057.94 1354.96 1057.94S1402.23 1088.3 1445.89 1088.3S1492.09 1034.51 1536.83 1034.51S1584.91 1115.7 1627.76 1115.7S1675.91 1044.39 1718.7 1044.39S1765.76 1111.43 1809.63 1111.43S1856.63 1042.45 1900.57 1042.45S1947.49 1113.75 1991.5 1113.75S2039.9 1040.6 2082.44 1040.6S2128.52 1106.57 2173.37 1106.57L2137 1321 L-100 1321 Z;M-100 1057.01C-51.76 1039.79 -52.52 1112.66 -9.07 1112.66S36.5 1048.56 81.87 1048.56S129.57 1107.11 172.8 1107.11S219.33 1057.6 263.74 1057.6S309.21 1094.11 354.67 1094.11S402.85 1042.29 445.61 1042.29S491.59 1061.82 536.54 1061.82S583.24 1030.97 627.48 1030.97S673.5 1090.17 718.41 1090.17S765.25 1049.45 809.35 1049.45S856.31 1045.44 900.28 1045.44S948.25 1060.9 991.22 1060.9S1038.01 1111.02 1082.15 1111.02S1128.15 1038.11 1173.09 1038.11S1220.04 1059.96 1264.02 1059.96S1309.85 1061.91 1354.96 1061.91S1401.72 1086.42 1445.89 1086.42S1491.83 1048.92 1536.83 1048.92S1583.52 1085.72 1627.76 1085.72S1673.87 1036.75 1718.7 1036.75S1765.51 1104.96 1809.63 1104.96S1857.63 1051.47 1900.57 1051.47S1946.19 1092.57 1991.5 1092.57S2040.07 1039.5 2082.44 1039.5S2130.64 1109.08 2173.37 1109.08L2137 1321 L-100 1321 Z;M-100 1039.45C-54.09 1033.9 -51.64 1085.63 -9.07 1085.63S37.76 1053.55 81.87 1053.55S127.46 1088.08 172.8 1088.08S221.16 1042.59 263.74 1042.59S309.58 1061.65 354.67 1061.65S402.82 1046.81 445.61 1046.81S491.27 1087.78 536.54 1087.78S584.85 1033.25 627.48 1033.25S676.17 1102.61 718.41 1102.61S765.25 1049.21 809.35 1049.21S856.7 1086.57 900.28 1086.57S948.36 1045.79 991.22 1045.79S1037.18 1106.37 1082.15 1106.37S1128.81 1040.41 1173.09 1040.41S1221.62 1102.81 1264.02 1102.81S1312.55 1057.94 1354.96 1057.94S1402.23 1088.3 1445.89 1088.3S1492.09 1034.51 1536.83 1034.51S1584.91 1115.7 1627.76 1115.7S1675.91 1044.39 1718.7 1044.39S1765.76 1111.43 1809.63 1111.43S1856.63 1042.45 1900.57 1042.45S1947.49 1113.75 1991.5 1113.75S2039.9 1040.6 2082.44 1040.6S2128.52 1106.57 2173.37 1106.57L2137 1321 L-100 1321 Z"></animate>
  <animateTransform attributeName="transform" type="translate" dur="5s" begin="-4s" repeatCount="indefinite" values="0;10;0" calcMode="spline" keySplines="0.3 0 0.7 1;0.3 0 0.7 1"></animateTransform>
</path><path d="M-100 1082.48C-50.52 1079.19 -51.83 1123.51 -6.01 1123.51S41.82 1066.75 87.98 1066.75S136.35 1089.95 181.97 1089.95S230.41 1083.77 275.97 1083.77S323.7 1139.8 369.96 1139.8S420.05 1083.98 463.95 1083.98S511.3 1148.68 557.94 1148.68S607.3 1070.81 651.93 1070.81S699.69 1094.5 745.92 1094.5S794.91 1094.02 839.92 1094.02S890.1 1131.57 933.91 1131.57S983.2 1081.98 1027.9 1081.98S1075.36 1154.26 1121.89 1154.26S1169.94 1066.53 1215.88 1066.53S1265.6 1151.29 1309.87 1151.29S1357.74 1154.64 1403.87 1154.64S1453.01 1144.92 1497.86 1144.92S1546.76 1082.93 1591.85 1082.93S1641.98 1144.04 1685.84 1144.04S1733.84 1078.8 1779.83 1078.8S1827.39 1149.18 1873.82 1149.18S1921.72 1147.66 1967.82 1147.66S2016.83 1141.3 2061.81 1141.3S2111.59 1146.1 2155.8 1146.1L2137 1321 L-100 1321 Z" fill="#b6cad9" stroke-width="0">
  <animate attributeName="d" dur="2.5s" repeatCount="indefinite" values="M-100 1082.48C-50.52 1079.19 -51.83 1123.51 -6.01 1123.51S41.82 1066.75 87.98 1066.75S136.35 1089.95 181.97 1089.95S230.41 1083.77 275.97 1083.77S323.7 1139.8 369.96 1139.8S420.05 1083.98 463.95 1083.98S511.3 1148.68 557.94 1148.68S607.3 1070.81 651.93 1070.81S699.69 1094.5 745.92 1094.5S794.91 1094.02 839.92 1094.02S890.1 1131.57 933.91 1131.57S983.2 1081.98 1027.9 1081.98S1075.36 1154.26 1121.89 1154.26S1169.94 1066.53 1215.88 1066.53S1265.6 1151.29 1309.87 1151.29S1357.74 1154.64 1403.87 1154.64S1453.01 1144.92 1497.86 1144.92S1546.76 1082.93 1591.85 1082.93S1641.98 1144.04 1685.84 1144.04S1733.84 1078.8 1779.83 1078.8S1827.39 1149.18 1873.82 1149.18S1921.72 1147.66 1967.82 1147.66S2016.83 1141.3 2061.81 1141.3S2111.59 1146.1 2155.8 1146.1L2137 1321 L-100 1321 Z;M-100 1093.34C-51.01 1081.95 -50.49 1126.28 -6.01 1126.28S42.63 1141.52 87.98 1141.52S135.28 1153.2 181.97 1153.2S231.61 1069.31 275.97 1069.31S323.9 1134.15 369.96 1134.15S417.79 1124.35 463.95 1124.35S511.74 1127.4 557.94 1127.4S607.95 1094.98 651.93 1094.98S699.48 1148.37 745.92 1148.37S793.27 1071.6 839.92 1071.6S888.48 1141.92 933.91 1141.92S982.79 1090.74 1027.9 1090.74S1077.24 1138.27 1121.89 1138.27S1169.6 1067.01 1215.88 1067.01S1264.58 1127.46 1309.87 1127.46S1357.56 1078.58 1403.87 1078.58S1452.79 1150.81 1497.86 1150.81S1547.37 1072.78 1591.85 1072.78S1638.9 1132.47 1685.84 1132.47S1735.51 1072.88 1779.83 1072.88S1827.71 1133.18 1873.82 1133.18S1921.7 1094 1967.82 1094S2015.2 1149.3 2061.81 1149.3S2110.93 1066.16 2155.8 1066.16L2137 1321 L-100 1321 Z;M-100 1082.48C-50.52 1079.19 -51.83 1123.51 -6.01 1123.51S41.82 1066.75 87.98 1066.75S136.35 1089.95 181.97 1089.95S230.41 1083.77 275.97 1083.77S323.7 1139.8 369.96 1139.8S420.05 1083.98 463.95 1083.98S511.3 1148.68 557.94 1148.68S607.3 1070.81 651.93 1070.81S699.69 1094.5 745.92 1094.5S794.91 1094.02 839.92 1094.02S890.1 1131.57 933.91 1131.57S983.2 1081.98 1027.9 1081.98S1075.36 1154.26 1121.89 1154.26S1169.94 1066.53 1215.88 1066.53S1265.6 1151.29 1309.87 1151.29S1357.74 1154.64 1403.87 1154.64S1453.01 1144.92 1497.86 1144.92S1546.76 1082.93 1591.85 1082.93S1641.98 1144.04 1685.84 1144.04S1733.84 1078.8 1779.83 1078.8S1827.39 1149.18 1873.82 1149.18S1921.72 1147.66 1967.82 1147.66S2016.83 1141.3 2061.81 1141.3S2111.59 1146.1 2155.8 1146.1L2137 1321 L-100 1321 Z"></animate>
  <animateTransform attributeName="transform" type="translate" dur="2.5s" begin="-2.25s" repeatCount="indefinite" values="0;10;0" calcMode="spline" keySplines="0.3 0 0.7 1;0.3 0 0.7 1"></animateTransform>
</path></g>
</svg>