<svg xmlns="http://www.w3.org/2000/svg" viewBox="0 0 2240 1024" width="140" height="64" fill="#00aeec" xmlns:v="https://vecta.io/nano"><path d="M2079.81 913.566c-10.013 0-18.555.8-26.936-.16-16.987-1.951-33.974-1.568-50.993-2.079-10.973-.288-10.653-.288-11.581-10.909l-8.605-97.156-7.71-85.319-8.318-78.025-7.774-73.323a12681.115 12681.115 0 0 0-10.685-92.133l-10.205-81.416a20559.273 20559.273 0 0 0-17.531-125.979c-6.398-44.723-14.076-89.222-22.106-133.657-1.44-7.966-1.248-8.254 6.366-9.533 31.671-5.406 63.502-10.013 95.716-9.309 3.487.096 7.006.16 10.461.608 5.662.704 8.605 3.455 8.925 10.045 1.12 22.969 2.719 45.939 4.415 68.876l8.478 112.735 5.151 72.427 8.925 116.286 5.182 71.179 8.637 104.354 5.278 66.445 8.637 98.371 6.27 77.673zM853.67 114.918c4.639 0 11.645-.512 18.555.128 8.797.8 10.493 3.071 11.037 11.901l7.582 121.181 9.405 130.586 9.149 119.869 10.877 131.61 7.678 100.899 8.51 93.573 7.166 80.585c.736 8.51.128 9.053-9.053 8.829-24.025-.576-47.922-3.391-71.947-2.719-5.502.16-7.102-2.367-8.03-7.582-1.983-11.357-1.664-22.905-2.879-34.39-3.295-30.359-5.182-60.846-7.966-91.269l-8.35-82.824-7.71-75.754-8.35-74.442-7.87-68.524-12.508-100.323-12.988-91.813c-5.886-41.588-12.508-83.08-19.834-124.412a1393.963 1393.963 0 0 0-5.31-28.024c-.96-4.703-.096-7.422 5.278-8.158 14.14-1.887 28.248-4.831 42.452-6.206 14.204-1.312 28.408-3.967 45.107-2.719zm1006.076 403.339c27.064 0 27.704.192 32.055 24.537 5.342 30.039 9.085 60.334 12.636 90.63l10.973 96.868 7.742 78.089 8.51 81.64 4.799 46.131c.512 4.447-.832 6.814-5.214 7.326l-27.64 3.263-50.737 5.182c-8.733.8-9.309.32-10.941-8.126l-44.435-229.821-28.92-152.916a805.526 805.526 0 0 1-3.583-21.082c-.64-4.031.448-6.622 5.023-7.71 30.487-7.134 61.294-12.636 89.734-14.012zm-1137.078 0c28.952 0 28.824.096 33.302 26.36 6.91 40.66 11.805 81.544 16.187 122.556l13.148 119.357 7.742 81.704 6.174 57.967c.256 2.367.384 4.735.544 7.134.416 9.469 0 10.237-9.117 11.165l-54.256 5.246c-6.558.64-13.084 1.6-19.578 2.239-8.637.8-8.925.768-10.621-7.966l-17.915-92.101-42.868-221.632-16.091-88.838c-1.024-5.406-.256-7.934 5.342-9.245 30.199-7.038 60.59-12.54 88.006-13.948zm382.129 309.862v124.028c0 1.184-.128 2.399.032 3.583.608 6.014-1.6 8.669-7.806 8.414-8.158-.352-16.251-.128-24.409.064-17.019.32-34.07-.352-51.057 1.6-9.405 1.088-9.213.512-10.141-9.405l-8.669-93.637-7.678-86.535-8.51-88.838-5.214-59.279-6.462-77.13c-.96-10.845-.16-12.38 10.589-13.5a531.877 531.877 0 0 1 83.528-2.591c6.942.384 13.852 1.727 20.57 3.359 8.478 2.015 9.405 3.263 9.853 12.124l2.335 53.584.832 59.631c1.855 54.8 1.568 109.664 2.207 164.528zm1134.806 5.63v117.438c0 1.983-.064 3.967.032 5.982.416 5.151-1.983 6.974-6.878 6.942-12.029-.096-24.025 0-36.022.16-13.564.128-27.096.064-40.628 1.536-8.925 1.024-8.989.352-9.789-8.51l-11.261-122.045-9.981-112.639-10.909-116.094-4.607-58.159c-.576-8.446.352-9.949 9.885-10.717 16.571-1.312 33.078-3.551 49.778-3.263 16.635.32 33.302-.608 49.842 2.559 14.012 2.687 14.716 3.487 15.547 18.459 2.399 44.051 1.664 88.23 3.231 132.282 1.6 46.898.48 93.797 1.759 146.07zm-408.105-528.614c9.789.576 17.499.096 25.177 1.791 4.895 1.12 7.358 3.327 7.838 8.574l7.326 75.786 6.238 61.518.192 1.184c1.664 12.924 1.28 13.276-11.293 13.98l-33.558 2.271c-7.358.448-9.693 1.696-10.909-9.021l-13.692-113.311a1185.032 1185.032 0 0 0-4.287-31.799c-.928-5.982 1.408-9.277 7.006-9.757 7.358-.672 14.716-.864 19.962-1.216zm-1133.399.16c7.55.416 15.324-.16 22.937 1.6 4.351.992 6.558 2.815 6.974 7.774.928 11.837 2.751 23.641 3.871 35.478l10.237 108.992c.704 7.902.544 8.062-6.846 8.605l-39.413 2.463c-7.646.352-8.605-.576-9.565-8.382l-9.661-80.297-7.902-66.157c-.864-6.078 1.12-7.742 5.982-8.733 7.71-1.568 15.452-1.056 23.385-1.344zm399.148 100.003l-.032 69.004c0 10.333-.128 10.397-10.397 10.269a324.29 324.29 0 0 1-36.981-1.919c-7.934-.992-8.094-.736-8.318-9.149l-2.207-84.359-1.791-57.039c-.608-9.821-.064-9.917 9.373-10.045 13.916-.16 27.8.48 41.62 2.591 8.318 1.28 8.701 1.28 8.733 10.493l.064 70.188h-.064zm1135.382.608l-.032 69.036c0 9.661-.16 9.725-9.853 9.661a505.325 505.325 0 0 1-38.133-1.791c-6.302-.48-8.158-3.135-7.742-8.861.064-.8 0-1.6 0-2.399l-2.815-133.177c-.032-2.367-.16-4.735-.064-7.134.128-8.957.16-9.181 9.149-9.117 12.38.064 24.665.704 37.013 1.919 15.068 1.504 12.412 3.359 12.476 15.26v66.605zm-1565.593 54c.288 12.636.288 12.604-11.805 15.547l-24.729 6.046c-7.07 1.6-8.318.704-9.533-6.238l-25.241-141.335c-1.696-9.757-1.248-10.365 8.35-12.06l35.382-5.95c7.518-1.184 8.478-.768 9.981 7.518 2.975 16.731 5.79 33.526 7.998 50.385l9.309 80.169c.256 1.951.192 3.967.288 5.918zM1731.175 323.21l46.61-7.55c5.598-.864 7.294 2.655 8.03 7.646l8.158 55.184c3.199 26.744 7.582 53.36 8.414 80.329l.096 8.318c.16 4.287-1.983 6.494-5.95 7.422l-31.639 7.262c-5.055 1.216-6.75-.928-7.582-5.854l-10.045-56.08-16.091-92.389c-.128-1.12 0-2.303 0-4.287zm-710.641 108.033c-.448 16.379.544 30.647-1.696 44.915-.672 4.511-1.983 7.422-6.846 7.838l-31.191 2.751c-5.023.544-6.43-1.632-7.262-6.558-2.335-14.556-1.919-29.303-3.327-43.923-2.655-27.608-3.775-55.408-5.566-83.112-.448-6.75-1.12-13.436-1.664-20.186-.288-3.775 1.216-5.886 5.246-6.046 13.5-.544 26.936-3.007 40.5-2.527 7.934.288 8.605.8 9.181 8.797.352 5.534.256 11.133.384 16.699l2.239 81.352zm1134.902-15.867l-.032 57.199c-.16 9.917-1.28 10.781-10.653 11.645l-27.736 2.559c-5.214.544-7.646-.992-7.966-6.974l-4.927-75.978-4.415-62.894c-.16-2.399-.032-4.799-.192-7.166-.224-4.191 1.056-6.654 5.758-6.814 13.116-.448 26.136-2.975 39.349-2.495 8.062.288 8.19.416 8.797 8.797 1.951 27.32 2.143 54.704 2.015 82.12zM628.296 756.172c16.571 18.235 17.403 39.828 11.933 62.414-5.502 22.585-18.043 41.204-33.238 57.903-25.497 27.896-56.304 48.498-89.062 65.997-56.4 30.135-116.19 50.161-178.572 61.998-44.883 8.478-90.054 15.004-135.705 17.499-13.916.768-27.8 1.408-41.716 1.312-10.077 0-20.186.288-30.231-.064-8.542-.32-9.789-1.791-10.493-10.717l-7.646-96.1-10.813-111.296-7.774-80.521-10.717-94.565-10.045-87.431-12.316-96.708a8228.968 8228.968 0 0 0-13.212-92.997 5984.501 5984.501 0 0 0-24.313-152.628A3243.825 3243.825 0 0 0 .702 76.529c-1.152-5.502.512-7.71 5.342-9.725l138.68-58.031c8.605-3.583 17.435-6.59 26.584-8.286 6.334-1.184 7.966.128 7.774 6.494-.48 16.283.192 32.631-1.408 48.85a161.393 161.393 0 0 0-.64 13.084l.096 175.213c1.344 51.185 4.031 102.338 7.006 153.491 2.335 40.372 5.694 80.745 9.149 121.053l11.389 118.462c.736 7.518 1.408 8.222 9.949 7.07a381.329 381.329 0 0 1 50.833-4.191c52.881-.128 104.898 7.134 156.339 19.322 45.011 10.685 88.806 24.921 130.778 44.819 20.794 9.853 40.692 21.242 58.831 35.702 6.174 4.863 11.677 10.461 16.891 16.315zm1126.841-9.597c20.474 17.947 27.928 39.924 22.106 67.116-4.831 22.425-15.771 41.268-30.359 58.127-23.417 27.096-51.857 47.698-82.632 64.909-60.334 33.782-124.604 55.728-192.168 68.396a1151.089 1151.089 0 0 1-111.456 15.547c-21.178 1.823-42.452 4.095-66.221 2.623h-27.768c-5.406 0-8.478-1.696-8.925-8.126l-6.942-84.2-8.478-88.87-7.71-81.736-8.286-76.874-7.934-72.139-10.653-87.335-10.365-81.416a6133.577 6133.577 0 0 0-12.156-87.143l-17.819-112.767a3259.149 3259.149 0 0 0-29.112-158.994c-.448-2.335-.672-4.735-1.376-7.006-1.664-5.119-.064-7.838 4.959-9.821 49.17-19.226 96.772-42.42 146.389-60.718 6.494-2.431 13.052-5.151 20.058-5.854 6.302-.64 7.902.384 7.294 7.102-3.327 36.437-1.408 73.067-3.135 109.536-1.408 29.751-1.248 59.599.256 89.382.352 7.55.64 15.132.576 22.649-.384 35.766 1.504 71.499 3.327 107.201l9.245 141.399 9.021 101.922 5.822 55.632c1.248 10.205 1.759 10.301 11.773 8.957 17.659-2.399 35.35-4.351 53.201-4.095 62.638.8 124.028 10.685 184.266 27.864 40.788 11.581 80.489 26.04 117.982 46.291a253.558 253.558 0 0 1 47.218 32.439zM308.677 922.811c23.161-11.069 135.609-98.947 144.534-113.279-54.576-23.513-109.344-45.363-168.239-63.246l23.705 176.525zm1277.197-107.521c2.879-3.103 2.559-5.502-1.344-7.23-7.774-3.551-15.484-7.326-23.353-10.557-42.004-17.179-84.2-33.814-127.483-47.378-3.775-1.152-7.646-3.775-12.476-1.536l23.321 173.454c3.455.768 4.799-.832 6.334-1.919 39.317-28.856 78.889-57.359 116.638-88.39 6.366-5.182 12.668-10.397 18.363-16.443z" /></svg>